<?xml version="1.0"?>
<svg xmlns="http://www.w3.org/2000/svg" xmlns:xlink="http://www.w3.org/1999/xlink" version="1.1" id="Capa_1" x="0px" y="0px" viewBox="0 0 512 512" style="enable-background:new 0 0 512 512;" xml:space="preserve" width="32px" height="32px" class=""><g><circle style="fill:#B0E1FF;" cx="256" cy="256" r="256" data-original="#B0E1FF" class=""/><path style="fill:#85C5ED;" d="M256,96.84c-11.511,0-22.731,1.241-33.543,3.576c-12.578-6.754-26.955-10.594-42.232-10.594  c-49.376,0-89.403,40.027-89.403,89.403c0,15.276,3.84,29.654,10.594,42.231c-2.336,10.812-3.577,22.032-3.576,33.543  c0,43.929,17.914,83.671,46.83,112.33l0,0l141.454,142.897c117.474-13.773,210.619-107.069,224.162-224.614l-141.95-141.947  l-0.006,0.006C339.671,114.754,299.929,96.84,256,96.84z" data-original="#85C5ED" class=""/><path style="fill:#294C7D" d="M410.586,288.536c2.335-10.81,3.575-22.027,3.575-33.535c0-87.349-70.811-158.16-158.16-158.16  c-11.508,0-22.725,1.241-33.535,3.575c-12.579-6.756-26.961-10.592-42.24-10.592c-49.376,0-89.403,40.028-89.403,89.403  c0,15.278,3.836,29.661,10.592,42.24c-2.335,10.81-3.575,22.027-3.575,33.535c0,87.349,70.811,158.16,158.16,158.16  c11.508,0,22.725-1.241,33.535-3.575c12.579,6.756,26.961,10.592,42.24,10.592c49.376,0,89.403-40.028,89.403-89.403  C421.178,315.496,417.342,301.115,410.586,288.536z" data-original="#41A0D7" class="active-path" data-old_color="#41A0D7"/><path style="fill:#FFFFFF;" d="M305.816,206.502c-6.677-6.653-29.244-18.223-49.724-18.223c-15.814,0-29.418,5.014-29.418,20.827  c0,16.48,19.437,20.62,42.175,26.294c33.117,8.929,59.356,18.755,59.356,54.671c0,9.892-1.867,18.354-5.597,25.382  c-3.735,7.029-8.766,12.716-15.1,17.052c-23.636,16.187-61.114,14.799-88.905,6.248c-13.537-4.165-25.688-10.064-36.448-17.703  l15.881-30.98c3.46,3.459,19.52,14.445,41.393,20.046c16.371,4.2,50.505,6.405,50.505-16.401c0-13.313-14.208-19.075-28.117-23.17  c-36.308-10.66-72.113-16.301-72.113-55.712c0-37.799,29.976-58.055,67.427-58.055c13.017,0,24.992,2.042,35.926,6.117  c10.935,4.079,20.477,8.896,28.638,14.448L305.816,206.502z" data-original="#FFFFFF" class=""/></g> </svg>
