<?xml version="1.0"?>
<svg xmlns="http://www.w3.org/2000/svg" xmlns:xlink="http://www.w3.org/1999/xlink" version="1.1" id="Layer_1" x="0px" y="0px" viewBox="0 0 512 512" style="enable-background:new 0 0 512 512;" xml:space="preserve" width="512px" height="512px" class=""><g><g>
	<polygon style="fill:#EAAA33" points="445.244,159.1 445.244,444.019 66.756,444.019 66.756,159.1 256,297.033  " data-original="#F2F2F2" class="active-path" data-old_color="#F2F2F2"/>
	<polygon style="fill:#EAAA33" points="466.067,67.981 256,221.091 45.933,67.981 256,67.981  " data-original="#F2F2F2" class="active-path" data-old_color="#F2F2F2"/>
</g><g>
	<path style="fill:#52493C" d="M66.756,159.1v284.919H32.459c-12.849,0-23.273-10.424-23.273-23.273V117.135L66.756,159.1z" data-original="#F14336" class="" data-old_color="#F14336"/>
	<path style="fill:#52493C" d="M502.813,91.254v25.882L445.244,159.1L256,297.033L66.756,159.1L9.187,117.135V91.254   c0-12.849,10.424-23.273,23.273-23.273h13.474L256,221.091l210.067-153.11h13.461C492.39,67.981,502.813,78.405,502.813,91.254z" data-original="#F14336" class="" data-old_color="#F14336"/>
</g><path style="fill:#73624B" d="M502.813,117.135v303.611c0,12.849-10.424,23.273-23.285,23.273h-34.284V159.1L502.813,117.135z" data-original="#D32E2A" class="" data-old_color="#D32E2A"/><path style="fill:#333333;" d="M479.528,58.794H32.459C14.561,58.794,0,73.356,0,91.254v329.493  c0,17.898,14.561,32.459,32.459,32.459h447.069c17.905,0,32.472-14.561,32.472-32.459V91.254  C512,73.356,497.434,58.794,479.528,58.794z M437.867,77.167L256,209.723L74.133,77.167H437.867z M18.373,420.746V135.2  l39.196,28.569v271.064h-25.11C24.692,434.833,18.373,428.513,18.373,420.746z M436.057,434.833H75.943V177.161L250.59,304.457  c1.611,1.175,3.511,1.763,5.41,1.763c1.9,0,3.8-0.588,5.41-1.763l174.647-127.297V434.833z M493.627,420.746  c0,7.767-6.324,14.086-14.098,14.086h-25.098V163.769l39.196-28.569V420.746z M493.627,112.464L256,285.665L18.373,112.464v-21.21  c0-7.767,6.319-14.086,14.086-14.086h10.481L250.59,228.515c1.612,1.175,3.51,1.763,5.41,1.763c1.9,0,3.798-0.588,5.41-1.763  L469.059,77.167h10.469c7.774,0,14.098,6.319,14.098,14.086V112.464z" data-original="#333333" class=""/></g> </svg>
