<?xml version="1.0"?>
<svg xmlns="http://www.w3.org/2000/svg" height="512px" viewBox="0 0 512 512" width="512px" class=""><g><path d="m504.5 37.5v437c0 16.570312-13.429688 30-30 30h-437c-16.570312 0-30-13.429688-30-30v-437c0-16.570312 13.429688-30 30-30h437c16.570312 0 30 13.429688 30 30zm0 0" fill="#006fd3" data-original="#006FD3" class="" style="fill:#294C7D" data-old_color="#006fd3"/><path d="m69.839844 504.5h-32.339844c-16.570312 0-30-13.429688-30-30v-437c0-16.570312 13.429688-30 30-30h32.339844c-16.570313 0-30 13.429688-30 30v437c0 16.570312 13.429687 30 30 30zm0 0" fill="#439ef4" data-original="#439EF4" class="" style="fill:#EAAA33" data-old_color="#439ef4"/><path d="m504.5 37.5v437c0 16.570312-13.429688 30-30 30h-193.199219c148.109375-170.640625 164.988281-408.660156 165.820313-497h27.378906c16.570312 0 30 13.429688 30 30zm0 0" fill="#0055d1" data-original="#0055D1" class="" style="fill:#294C7D" data-old_color="#0055d1"/><path d="m400.421875 400.421875c-17.371094 17.367187-40.03125 26.207031-62.78125 26.527344-6.320313.101562-12.652344-.46875-18.871094-1.6875-16.699219-3.28125-32.660156-11.292969-45.71875-24.023438-42.878906 5-87.550781-8.9375-120.449219-41.839843-32.902343-32.886719-46.839843-77.558594-41.832031-120.4375-34.578125-35.472657-34.308593-92.25.808594-127.371094 35.132813-35.128906 91.910156-35.398438 127.371094-.820313 42.878906-5 87.550781 8.941407 120.449219 41.839844 28.082031 28.070313 42.339843 64.71875 42.8125 101.511719.078124 6.320312-.25 12.640625-.980469 18.929687 1.238281 1.269531 2.429687 2.570313 3.578125 3.890625 30.941406 35.617188 29.472656 89.617188-4.386719 123.480469zm0 0" fill="#439ef4" data-original="#439EF4" class="" style="fill:#EAAA33" data-old_color="#439ef4"/><path d="m400.421875 400.421875c-17.371094 17.367187-40.03125 26.207031-62.78125 26.527344 29.621094-48.828125 51.308594-100.148438 67.167969-150.007813 30.941406 35.617188 29.472656 89.617188-4.386719 123.480469zm0 0" fill="#1680f6" data-original="#1680F6" class="" style="fill:#EAAA33" data-old_color="#1680f6"/><path d="m256.976562 377.355469c-42.042968 0-76.648437-17.273438-92.578124-46.203125-4.632813-8.414063-5.710938-18.542969-2.957032-27.785156 2.707032-9.097657 8.734375-16.519532 16.972656-20.898438 5.082032-2.703125 10.796876-4.128906 16.527344-4.128906.503906 0 1.003906.011718 1.503906.03125-3.121093-1.601563-6.191406-3.402344-9.1875-5.429688-20.984374-14.195312-32.539062-35.058594-32.539062-58.746094 0-23.003906 11.46875-44.59375 31.464844-59.238281 18.132812-13.28125 42.261718-20.304687 69.777344-20.304687 42.042968 0 76.648437 17.273437 92.578124 46.203125 4.632813 8.417969 5.710938 18.542969 2.957032 27.785156-2.707032 9.097656-8.734375 16.519531-16.972656 20.898437-5.082032 2.703126-10.796876 4.132813-16.527344 4.132813-.496094 0-.988282-.011719-1.484375-.03125 3.199219 1.644531 6.253906 3.453125 9.167969 5.425781 20.984374 14.195313 32.542968 35.058594 32.542968 58.746094 0 23.003906-11.46875 44.59375-31.464844 59.238281-18.136718 13.28125-42.265624 20.304688-69.78125 20.304688zm-39.785156-91.128907c3.605469 2.933594 6.65625 6.609376 8.914063 10.875 1.339843 2.535157 9.894531 9.777344 30.871093 9.777344 18.886719 0 28.136719-5.695312 30.335938-8.582031-.140625-.128906-.300781-.269531-.484375-.421875-7.234375-5.90625-19.460937-6.277344-30.246094-6.601562-11.824219-.359376-25.59375-1.382813-39.390625-5.046876zm8.433594-72.515624c.160156.152343.351562.320312.574219.5 7.378906 5.882812 18.546875 6.210937 30.371093 6.558593 2.640626.078125 5.371094.160157 8.070313.304688 11.371094.617187 21.679687 2.15625 31.027344 4.644531-3.574219-2.921875-6.597657-6.574219-8.839844-10.8125-1.339844-2.535156-9.890625-9.773438-30.867187-9.773438-18.882813 0-28.132813 5.695313-30.335938 8.578126zm0 0" fill="#1680f6" data-original="#1680F6" class="" style="fill:#EAAA33" data-old_color="#1680f6"/><path d="m256.976562 278.277344c13.246094.402344 27.617188.988281 38.074219 9.527344 3.039063 2.480468 5.691407 5.914062 5.691407 10.007812 0 10.699219-15.339844 22.066406-43.765626 22.066406-24.746093 0-38.285156-8.992187-42.363281-16.695312-5.75-10.871094-19.230469-15.011719-30.09375-9.234375-11.003906 5.851562-14.742187 20.019531-8.730469 30.9375 13.617188 24.734375 43.871094 39.46875 81.1875 39.46875 24.734376 0 46.207032-6.152344 62.097657-17.792969 16.617187-12.167969 26.144531-29.9375 26.144531-48.75 0-19.238281-9.523438-36.277344-26.824219-47.976562-16.03125-10.847657-35.414062-14.746094-54.457031-15.777344-15.460938-.839844-32.960938.589844-45.84375-9.6875-3.128906-2.496094-5.898438-5.984375-5.898438-10.175782 0-10.695312 15.335938-22.0625 43.765626-22.0625 24.746093 0 38.285156 8.992188 42.359374 16.695313 5.753907 10.867187 19.234376 15.011719 30.097657 9.234375 11.003906-5.851562 14.742187-20.019531 8.730469-30.9375-13.617188-24.734375-43.871094-39.46875-81.1875-39.46875-24.734376 0-46.207032 6.152344-62.097657 17.789062-16.617187 12.167969-26.144531 29.941407-26.144531 48.75 0 19.238282 9.523438 36.277344 26.820312 47.980469 18.390626 12.4375 40.746094 15.449219 62.4375 16.101563zm0 0" fill="#deefff" data-original="#DEEFFF" class=""/><path d="m243.804688 512h-206.304688c-20.679688 0-37.5-16.820312-37.5-37.5v-437c0-20.679688 16.820312-37.5 37.5-37.5h437c20.679688 0 37.5 16.820312 37.5 37.5v92.429688c0 4.140624-3.355469 7.5-7.5 7.5s-7.5-3.359376-7.5-7.5v-92.429688c0-12.40625-10.09375-22.5-22.5-22.5h-437c-12.40625 0-22.5 10.09375-22.5 22.5v437c0 12.40625 10.09375 22.5 22.5 22.5h206.304688c4.140624 0 7.5 3.359375 7.5 7.5s-3.359376 7.5-7.5 7.5zm0 0" data-original="#000000" class="active-path" style="fill:#2F291F" data-old_color="#000000"/><path d="m474.5 512h-196.175781c-4.140625 0-7.5-3.359375-7.5-7.5s3.359375-7.5 7.5-7.5h196.175781c12.40625 0 22.5-10.09375 22.5-22.5v-310.050781c0-4.140625 3.355469-7.5 7.5-7.5s7.5 3.359375 7.5 7.5v310.050781c0 20.679688-16.820312 37.5-37.5 37.5zm0 0" data-original="#000000" class="active-path" style="fill:#2F291F" data-old_color="#000000"/><path d="m336.3125 434.46875c-24.558594 0-47.800781-8.988281-65.898438-25.417969-38.65625 3.636719-76.699218-7.207031-107.519531-30.722656-3.292969-2.511719-3.925781-7.21875-1.414062-10.511719 2.515625-3.289062 7.21875-3.925781 10.511719-1.414062 28.644531 21.855468 64.226562 31.578125 100.1875 27.378906 2.25-.261719 4.488281.503906 6.105468 2.082031 15.742188 15.351563 36.578125 23.722657 58.53125 23.601563 22.019532-.128906 42.726563-8.777344 58.296875-24.351563 15.574219-15.574219 24.222657-36.277343 24.355469-58.296875.128906-22.003906-8.253906-42.789062-23.605469-58.53125-1.578125-1.621094-2.339843-3.863281-2.078125-6.105468 4.953125-42.449219-9.511718-84.097657-39.6875-114.273438-30.175781-30.175781-71.820312-44.640625-114.277344-39.6875-2.238281.265625-4.484374-.503906-6.101562-2.082031-15.742188-15.347657-36.566406-23.746094-58.53125-23.601563-22.023438.128906-42.726562 8.777344-58.300781 24.351563s-24.222657 36.277343-24.351563 58.296875c-.128906 22.003906 8.253906 42.789062 23.605469 58.535156 1.574219 1.617188 2.339844 3.859375 2.078125 6.101562-4.332031 37.132813 6.683594 74.960938 30.226562 103.792969 2.617188 3.207031 2.144532 7.933594-1.066406 10.550781-3.207031 2.621094-7.933594 2.144532-10.554687-1.0625-25.351563-31.046874-37.601563-71.507812-33.871094-111.511718-16.5625-18.246094-25.5625-41.714844-25.417969-66.492188.152344-25.996094 10.363282-50.433594 28.746094-68.816406s42.820312-28.589844 68.816406-28.746094h.59375c24.554688 0 47.796875 8.988282 65.894532 25.414063 45.8125-4.3125 90.511718 11.742187 123.117187 44.351562 32.609375 32.605469 48.660156 77.304688 44.347656 123.117188 16.5625 18.242187 25.5625 41.710937 25.414063 66.488281-.152344 25.996094-10.359375 50.433594-28.742188 68.816406-18.382812 18.382813-42.824218 28.589844-68.816406 28.746094-.199219-.003906-.398438-.003906-.59375 0zm0 0" data-original="#000000" class="active-path" style="fill:#2F291F" data-old_color="#000000"/><path d="m256.976562 371.855469c-40.007812 0-72.8125-16.207031-87.757812-43.355469-3.929688-7.132812-4.84375-15.722656-2.507812-23.5625 2.285156-7.671875 7.359374-13.929688 14.285156-17.613281 7.023437-3.734375 15.078125-4.507813 22.6875-2.171875 7.601562 2.332031 13.839844 7.492187 17.5625 14.523437 2.324218 4.390625 12.785156 12.703125 35.730468 12.703125 11.707032 0 21.953126-2.148437 28.851563-6.050781 5.46875-3.09375 7.414063-6.425781 7.414063-8.515625 0-1.128906-1.097657-2.699219-2.933594-4.199219-8.679688-7.085937-21.898438-7.484375-33.5625-7.839843-19.835938-.597657-45.3125-3.117188-66.40625-17.386719-19.425782-13.140625-30.121094-32.386719-30.121094-54.191407 0-21.230468 10.644531-41.203124 29.210938-54.800781 17.1875-12.585937 40.191406-19.238281 66.53125-19.238281 40.007812 0 72.8125 16.207031 87.757812 43.351562 3.929688 7.136719 4.84375 15.722657 2.507812 23.5625-2.285156 7.675782-7.359374 13.929688-14.285156 17.613282-7.027344 3.734375-15.082031 4.507812-22.683594 2.175781-7.605468-2.335937-13.84375-7.492187-17.566406-14.523437-2.324218-4.394532-12.785156-12.703126-35.730468-12.703126-11.707032 0-21.953126 2.148438-28.851563 6.050782-5.464844 3.089844-7.414063 6.425781-7.414063 8.511718 0 1.164063 1.148438 2.777344 3.078126 4.316407 8.8125 7.027343 20.867187 7.382812 33.632812 7.757812 2.609375.078125 5.308594.15625 7.9375.300781 24.171875 1.308594 43.226562 6.886719 58.253906 17.054688 19.425782 13.140625 30.125 32.386719 30.125 54.191406 0 21.230469-10.648437 41.203125-29.214844 54.800782-17.1875 12.582031-40.195312 19.238281-66.53125 19.238281zm-62.035156-73.019531c-2.382812 0-4.742187.582031-6.902344 1.730468-3.355468 1.785156-5.820312 4.855469-6.953124 8.648438-1.195313 4.019531-.730469 8.410156 1.273437 12.050781 12.265625 22.285156 40.160156 35.585937 74.617187 35.585937 23.128907 0 43.070313-5.652343 57.667969-16.339843 14.664063-10.742188 23.074219-26.304688 23.074219-42.703125 0-16.667969-8.355469-31.5-23.527344-41.765625-12.710937-8.597657-29.28125-13.34375-50.660156-14.5-2.445312-.132813-4.933594-.207031-7.566406-.285157-13.980469-.414062-29.824219-.878906-42.546875-11.027343-5.707031-4.554688-8.722657-10.097657-8.722657-16.039063 0-8.304687 5.476563-16.167968 15.03125-21.570312 9.242188-5.230469 21.773438-7.992188 36.234376-7.992188 28.046874 0 43.695312 10.6875 48.988281 20.6875 1.84375 3.484375 4.9375 6.039063 8.703125 7.195313 3.773437 1.15625 7.761718.773437 11.242187-1.078125 3.355469-1.78125 5.824219-4.855469 6.953125-8.648438 1.195313-4.015625.734375-8.40625-1.269531-12.046875-12.269531-22.285156-40.164063-35.585937-74.617187-35.585937-23.128907 0-43.070313 5.648437-57.667969 16.339844-14.664063 10.742187-23.078125 26.304687-23.078125 42.699218 0 16.671875 8.355468 31.503906 23.527344 41.769532 17.902343 12.109374 40.644531 14.28125 58.457031 14.816406 13.351562.40625 29.96875.90625 42.59375 11.214844 5.527343 4.511718 8.449219 9.980468 8.449219 15.816406 0 8.308594-5.480469 16.167968-15.03125 21.574218-9.246094 5.226563-21.773438 7.992188-36.234376 7.992188-28.050781 0-43.699218-10.6875-48.992187-20.6875-1.84375-3.484375-4.933594-6.042969-8.703125-7.199219-1.425781-.433593-2.886719-.652343-4.339844-.652343zm0 0" data-original="#000000" class="active-path" style="fill:#2F291F" data-old_color="#000000"/></g> </svg>
